<?xml version="1.0" standalone="no"?>
<!DOCTYPE svg PUBLIC "-//W3C//DTD SVG 20010904//EN"
 "http://www.w3.org/TR/2001/REC-SVG-20010904/DTD/svg10.dtd">
<svg version="1.0" xmlns="http://www.w3.org/2000/svg"
 width="1024.000000pt" height="961.000000pt" viewBox="0 0 1024.000000 961.000000"
 preserveAspectRatio="xMidYMid meet">
<metadata>
Created by potrace 1.16, written by Peter Selinger 2001-2019
</metadata>
<g transform="translate(0.000000,961.000000) scale(0.100000,-0.100000)"
fill="#000000" stroke="none">
<path d="M5510 9569 c-83 -51 -197 -168 -243 -250 -75 -134 -123 -335 -115
-487 l3 -69 -65 31 c-91 42 -184 43 -253 3 -183 -108 -178 -425 10 -614 l63
-63 -446 0 c-285 0 -461 -4 -488 -11 -70 -17 -136 -75 -176 -153 l-35 -69 -3
-231 c-1 -127 -2 -351 -2 -498 l0 -268 -103 0 c-169 0 -280 -41 -362 -132 -76
-84 -75 -78 -75 -628 l0 -486 -72 -12 c-97 -15 -199 -66 -267 -135 -66 -67
-95 -112 -123 -197 -22 -64 -23 -74 -26 -738 l-3 -673 35 -14 c31 -13 273 -15
1826 -15 1771 0 1790 0 1827 20 47 25 54 25 88 -1 30 -24 42 -24 375 6 91 8
230 18 310 21 80 3 155 7 168 10 l22 4 0 648 c0 597 -1 653 -18 713 -53 189
-202 320 -404 354 l-38 6 0 469 c0 293 -4 488 -11 519 -21 101 -102 186 -219
233 -45 17 -82 22 -197 26 l-143 4 0 478 c0 456 -1 481 -21 545 -17 55 -31 78
-73 121 -84 83 -90 84 -547 84 l-387 0 58 60 c69 69 135 194 151 284 14 80 -2
136 -55 192 -47 48 -92 64 -183 64 l-61 0 -7 76 c-14 146 6 247 81 398 72 146
182 251 259 248 25 -1 39 5 50 21 29 41 13 148 -22 146 -10 0 -47 -18 -83 -40z
m-515 -822 c25 -19 13 -33 -33 -41 -135 -21 -196 -186 -127 -342 29 -65 27
-79 -4 -35 -45 62 -61 113 -60 191 1 77 9 111 44 168 35 58 136 91 180 59z
m456 -155 c35 -51 34 -155 -2 -232 -24 -50 -126 -176 -136 -167 -2 3 10 25 27
50 71 106 106 227 78 273 -46 75 -50 87 -39 111 9 20 14 21 29 12 10 -6 29
-28 43 -47z m687 -558 c47 -19 88 -58 115 -109 21 -38 22 -55 25 -326 l3 -286
-53 9 c-77 14 -152 55 -204 110 -50 54 -70 93 -94 187 -9 36 -20 66 -26 68 -5
2 -20 -27 -32 -64 -48 -137 -125 -248 -204 -290 -52 -27 -141 -23 -204 9 -70
37 -160 138 -214 242 -25 47 -50 86 -56 86 -6 0 -19 -21 -29 -47 -44 -117
-125 -209 -225 -257 -59 -28 -74 -31 -160 -31 -84 0 -102 3 -152 28 -75 37
-139 102 -195 199 -28 48 -52 78 -60 76 -8 -2 -27 -36 -43 -76 -57 -148 -152
-229 -287 -247 -62 -8 -111 6 -170 48 l-43 30 0 213 c0 117 5 236 11 264 14
65 62 129 119 158 l44 22 1048 0 c925 0 1053 -2 1086 -16z m550 -1248 c77 -35
135 -98 151 -161 7 -26 11 -143 11 -295 l0 -250 -22 4 c-13 3 -50 8 -83 11
-76 9 -178 40 -235 72 -97 55 -179 158 -198 250 -10 46 -29 53 -43 16 -23 -60
-102 -174 -159 -226 -150 -139 -329 -161 -523 -65 -90 46 -210 152 -273 243
-20 30 -42 55 -48 55 -6 0 -27 -28 -46 -61 -66 -116 -200 -214 -351 -255 -91
-26 -311 -26 -394 0 -131 40 -232 108 -320 217 -31 38 -64 69 -73 69 -11 0
-28 -22 -47 -62 -79 -165 -254 -261 -475 -261 -101 0 -148 12 -227 59 l-43 25
0 223 c0 249 4 269 65 330 39 39 79 63 140 82 32 10 359 12 1585 11 l1545 -2
63 -29z m374 -1253 c76 -36 156 -105 192 -167 54 -93 56 -113 56 -594 l0 -445
-61 7 c-187 21 -329 84 -440 195 -106 107 -167 224 -187 363 -4 28 -12 53 -19
55 -6 2 -19 -19 -28 -49 -30 -91 -93 -217 -150 -303 -174 -262 -412 -332 -668
-198 -135 71 -306 262 -398 446 -22 43 -45 77 -51 75 -6 -2 -26 -38 -43 -80
-91 -216 -270 -384 -479 -450 -41 -13 -104 -21 -191 -25 -160 -6 -241 9 -363
68 -116 56 -240 178 -333 329 -45 72 -71 105 -83 105 -14 0 -28 -22 -55 -90
-20 -49 -48 -110 -63 -136 -92 -157 -234 -257 -418 -295 -167 -33 -285 -7
-423 96 l-57 44 0 351 c1 250 5 367 14 407 35 149 138 262 284 309 55 17 137
18 1977 16 l1920 -2 67 -32z"/>
<path d="M3822 9349 c-62 -10 -173 -52 -217 -82 -16 -11 -46 -36 -66 -54 l-37
-35 -99 21 c-55 11 -149 25 -209 32 -135 14 -416 6 -537 -16 -271 -49 -512
-160 -711 -326 -266 -223 -389 -467 -486 -967 -93 -478 -121 -574 -230 -797
-73 -151 -169 -301 -274 -432 l-66 -82 -78 56 c-99 71 -132 87 -237 118 -290
84 -554 -66 -573 -324 -8 -117 36 -210 131 -275 80 -55 129 -69 232 -69 149 0
268 57 442 213 48 44 91 80 94 80 12 0 227 -227 289 -305 216 -273 313 -521
365 -940 36 -295 44 -444 40 -805 -2 -195 -6 -371 -9 -390 -3 -19 -8 -52 -11
-72 l-5 -38 69 0 c83 0 76 -16 92 205 14 199 6 709 -16 925 -69 694 -197 993
-603 1409 l-118 121 64 77 c149 183 299 437 378 647 50 129 86 273 149 591 62
315 104 461 171 594 167 334 501 569 919 647 138 26 498 26 630 1 125 -24 117
-19 98 -72 -23 -69 -14 -195 18 -260 37 -74 92 -108 177 -113 58 -3 74 0 122
25 36 18 65 43 85 71 27 39 30 52 30 115 -1 104 -48 189 -142 255 -48 33 -48
35 33 75 138 70 347 55 539 -38 132 -64 232 -166 252 -258 6 -31 46 -67 75
-67 10 0 30 11 44 26 22 21 25 31 19 62 -14 74 -57 146 -134 223 -117 117
-268 190 -460 223 -103 17 -157 18 -239 5z m-204 -369 c70 -51 104 -147 64
-183 -47 -43 -104 -40 -133 7 -32 52 -20 206 15 206 7 0 32 -13 54 -30z
m-2995 -2363 c51 -25 109 -61 131 -79 l39 -34 -69 -63 c-136 -126 -254 -186
-364 -186 -208 0 -294 201 -147 343 56 55 117 73 225 69 87 -4 100 -7 185 -50z"/>
<path d="M6025 9354 c-153 -22 -306 -77 -415 -149 -122 -81 -216 -208 -227
-309 -5 -38 -2 -45 23 -65 20 -16 36 -20 54 -16 35 9 45 22 65 85 61 187 421
355 665 310 76 -14 152 -44 175 -70 16 -17 15 -19 -5 -30 -74 -39 -152 -152
-166 -237 -13 -85 45 -185 131 -224 80 -37 198 -17 252 42 61 66 86 193 59
298 -9 35 -15 65 -14 66 2 2 48 11 103 20 154 27 480 29 616 5 199 -36 389
-110 554 -218 39 -25 120 -95 180 -156 199 -201 278 -376 360 -800 83 -425
128 -592 211 -779 77 -173 220 -399 351 -555 l45 -53 -134 -137 c-280 -288
-414 -513 -498 -835 -106 -405 -148 -1132 -94 -1630 l7 -57 68 0 c59 0 69 2
68 18 0 9 -6 85 -14 167 -22 256 -7 818 30 1095 20 149 29 199 51 299 73 325
189 537 443 806 42 44 97 100 123 124 l48 43 79 -74 c135 -128 261 -198 388
-219 165 -27 333 53 400 189 36 73 37 168 3 257 -33 85 -130 181 -220 215 -90
34 -242 36 -345 3 -76 -25 -183 -82 -255 -137 l-46 -35 -66 82 c-162 201 -306
461 -379 685 -24 74 -66 253 -105 449 -72 361 -125 541 -199 681 -213 401
-617 660 -1120 721 -189 23 -461 9 -665 -34 l-70 -15 -56 45 c-67 55 -135 90
-211 110 -59 16 -197 26 -248 19z m473 -390 c17 -49 9 -130 -16 -164 -28 -37
-89 -40 -125 -6 -32 30 -34 54 -8 104 28 54 100 116 126 108 6 -1 16 -20 23
-42z m3271 -2329 c85 -47 141 -149 125 -231 -8 -45 -54 -98 -108 -127 -31 -16
-59 -21 -116 -21 -82 0 -145 22 -237 85 -50 34 -183 157 -183 169 0 10 106 83
158 109 72 36 141 51 227 48 66 -3 90 -8 134 -32z"/>
<path d="M260 3807 c-27 -9 -41 -23 -58 -59 l-24 -47 134 -400 133 -401 -133
-399 c-128 -384 -132 -400 -120 -436 7 -21 26 -48 41 -59 l28 -21 4942 -2
c4381 -2 4945 -1 4973 13 36 17 64 61 64 100 0 15 -61 197 -135 404 -74 207
-135 387 -135 399 0 13 61 193 135 400 74 207 135 390 135 408 0 39 -38 87
-81 102 -37 13 -1859 16 -1859 3 0 -5 11 -19 25 -32 14 -13 29 -39 35 -58 8
-29 5 -43 -20 -91 -16 -31 -52 -90 -79 -131 l-51 -75 32 -3 c71 -8 302 29 445
70 74 21 123 19 123 -6 0 -40 -375 -144 -617 -171 l-62 -7 -124 -186 c-204
-308 -296 -476 -319 -585 -14 -65 -7 -86 34 -101 37 -13 89 16 184 107 96 90
250 271 314 367 24 36 80 101 124 146 64 64 99 90 169 124 74 37 98 44 165 48
91 5 131 -10 162 -60 24 -40 34 -116 22 -161 -10 -34 -9 -35 30 -53 21 -9 41
-21 44 -26 3 -5 -24 -48 -59 -96 -131 -176 -206 -313 -193 -348 27 -69 199 96
454 434 105 138 115 148 131 128 21 -25 -250 -378 -428 -557 -112 -113 -167
-149 -226 -149 -42 0 -95 44 -95 78 0 51 -11 54 -45 15 -18 -21 -56 -51 -85
-67 -45 -25 -60 -28 -107 -23 -74 8 -125 44 -159 113 -24 49 -26 63 -22 134
l5 79 -109 -113 c-167 -176 -261 -231 -362 -212 -104 20 -163 153 -121 271 20
55 19 55 -17 10 -66 -82 -195 -208 -252 -246 -45 -30 -68 -39 -101 -39 -84 0
-119 55 -113 175 3 71 8 84 75 214 72 139 90 192 79 229 -14 43 -37 35 -103
-37 -71 -78 -163 -151 -238 -189 -37 -18 -63 -42 -100 -94 -70 -97 -198 -217
-274 -257 -80 -42 -169 -53 -224 -26 -101 48 -117 203 -42 411 40 114 93 211
144 264 35 37 42 40 92 40 52 1 55 3 82 41 30 44 102 94 157 109 19 5 60 10
91 10 153 0 200 -137 117 -342 l-36 -87 41 22 c22 12 81 61 130 109 l90 88
-27 21 c-147 115 -36 389 158 389 40 0 46 -3 52 -25 5 -18 -3 -36 -29 -72 -53
-74 -67 -107 -67 -165 0 -70 25 -109 95 -149 100 -56 100 -81 -4 -281 -95
-184 -112 -232 -89 -255 30 -30 68 -7 183 110 134 136 259 296 411 524 62 95
114 175 114 178 0 3 -28 5 -62 5 -77 0 -176 15 -241 36 -95 31 -157 118 -122
171 21 31 34 29 95 -12 77 -52 212 -84 352 -85 l57 0 87 133 c97 146 157 254
149 267 -3 5 -109 9 -235 10 l-229 0 -16 -30 c-8 -16 -25 -32 -38 -35 -12 -3
-193 -7 -402 -9 -285 -3 -434 -10 -594 -25 -118 -12 -216 -21 -217 -21 -1 0
-27 -45 -58 -99 -31 -55 -174 -276 -319 -493 -383 -574 -467 -736 -467 -898 0
-43 -29 -73 -59 -63 -47 17 -93 87 -106 160 -16 97 57 267 217 504 l99 148
-12 66 c-22 126 -127 302 -232 386 -73 59 -162 99 -218 99 -80 0 -108 61 -46
99 84 52 371 121 732 176 93 15 172 28 174 30 2 3 -741 5 -1652 5 -912 0
-1657 -2 -1657 -5 0 -2 11 -21 25 -41 82 -121 68 -303 -41 -515 -105 -204
-282 -349 -432 -352 -109 -3 -167 62 -167 183 1 74 25 131 95 219 24 30 36 51
29 48 -111 -45 -457 -146 -555 -162 l-41 -6 -56 -117 c-82 -170 -107 -259
-123 -427 -11 -124 27 -259 94 -336 48 -55 113 -82 208 -87 183 -10 292 69
310 222 8 65 -6 107 -43 131 -20 14 -22 19 -12 32 10 11 24 14 52 10 140 -19
136 -230 -7 -365 -85 -81 -172 -118 -308 -132 -155 -15 -276 25 -364 123 -95
106 -139 248 -131 422 7 138 31 224 107 382 57 118 58 123 37 127 -12 2 -49 9
-82 14 -108 18 -173 49 -241 116 -50 49 -65 72 -78 115 -31 107 -16 200 45
263 58 61 66 54 71 -60 3 -81 8 -108 29 -148 47 -91 161 -153 310 -168 l56 -6
72 83 c142 161 307 294 477 383 49 25 91 48 93 49 1 2 -453 4 -1010 4 -768 0
-1023 -3 -1049 -12z m3778 -404 c2 -13 -14 -45 -42 -82 -79 -108 -82 -148 -25
-417 23 -105 32 -178 33 -248 l1 -99 48 54 c89 98 163 193 223 284 104 159
251 283 383 321 34 10 78 15 122 12 59 -3 72 -8 98 -32 41 -39 55 -86 48 -162
l-5 -63 36 -18 c20 -10 37 -23 39 -29 2 -6 -29 -55 -69 -110 -140 -193 -198
-308 -170 -336 42 -42 191 106 448 444 73 96 109 136 119 132 8 -4 15 -12 15
-19 0 -32 -317 -432 -440 -555 -123 -123 -183 -154 -257 -134 -29 8 -63 63
-63 102 l0 31 -46 -49 c-78 -84 -160 -109 -242 -75 -85 36 -126 105 -126 215
l-1 76 -105 -106 c-147 -146 -240 -199 -353 -200 -60 0 -117 18 -151 48 -45
41 -70 139 -43 176 17 24 47 11 47 -21 0 -41 29 -90 61 -103 34 -14 102 -8
126 12 27 22 52 89 59 159 6 64 -21 336 -35 351 -4 5 -43 -40 -86 -100 -183
-245 -380 -459 -466 -503 -81 -41 -159 -8 -174 74 l-7 37 -43 -44 c-62 -64
-116 -89 -181 -84 -115 10 -184 97 -184 233 0 236 247 563 479 635 132 41 236
19 267 -57 17 -39 22 -124 11 -159 -6 -17 -1 -24 33 -39 22 -10 40 -24 40 -32
0 -7 -41 -70 -90 -141 -93 -131 -160 -250 -160 -284 0 -28 28 -34 66 -13 68
36 307 309 452 515 31 45 32 46 21 110 -18 113 -1 178 68 246 50 51 107 75
168 72 43 -3 50 -6 53 -25z m5575 -867 c69 -28 127 -130 113 -199 -19 -95 -91
-157 -183 -157 -168 0 -252 187 -139 309 17 18 45 39 61 47 39 17 107 18 148
0z m-8690 -37 c21 -5 54 -24 74 -42 123 -108 58 -309 -107 -325 -130 -12 -233
122 -191 250 15 44 68 96 117 113 48 17 59 18 107 4z"/>
<path d="M3171 3118 c-50 -14 -109 -58 -174 -128 -157 -169 -264 -481 -191
-555 55 -54 174 33 318 234 54 76 58 84 46 106 -12 22 -9 29 27 77 59 77 85
134 87 191 1 40 -3 52 -23 68 -26 21 -39 22 -90 7z"/>
<path d="M4700 3115 c-162 -51 -359 -350 -377 -572 -7 -90 9 -123 60 -123 65
0 158 83 271 241 64 89 66 93 51 116 -15 22 -14 26 24 71 82 97 115 218 71
262 -23 23 -38 24 -100 5z"/>
<path d="M9496 2455 c-42 -22 -55 -44 -56 -93 0 -95 110 -136 176 -65 72 77
-27 208 -120 158z"/>
<path d="M811 2394 c-74 -62 -34 -173 62 -174 49 0 73 13 92 50 19 38 19 65
-2 100 -32 55 -102 66 -152 24z"/>
<path d="M2573 3790 c-193 -35 -444 -194 -605 -385 -32 -38 -55 -71 -50 -73 5
-1 81 20 168 48 224 73 344 100 459 107 184 10 203 -24 64 -112 -109 -69 -192
-148 -219 -207 -38 -84 -19 -184 40 -203 76 -24 232 149 320 353 93 217 97
391 9 454 -30 23 -113 30 -186 18z"/>
<path d="M6275 3672 c-190 -20 -735 -111 -735 -122 0 -3 21 -22 46 -41 99 -74
213 -256 252 -404 9 -36 20 -64 24 -63 29 11 462 624 446 632 -2 1 -16 0 -33
-2z"/>
<path d="M6705 3104 c-144 -97 -173 -299 -48 -333 65 -18 88 -6 122 64 65 131
86 228 61 276 -16 29 -87 26 -135 -7z"/>
<path d="M8650 3121 c-164 -50 -346 -308 -390 -551 -29 -161 55 -199 181 -83
33 32 96 104 139 162 70 94 77 107 64 122 -7 8 -14 18 -14 22 0 3 24 40 54 81
112 157 95 286 -34 247z"/>
<path d="M6419 2839 c-9 -13 -29 -49 -44 -79 -70 -137 -84 -242 -40 -285 64
-65 199 4 323 163 l34 42 -59 0 c-107 0 -165 46 -190 149 l-8 35 -16 -25z"/>
<path d="M3840 1732 c-20 -11 -46 -38 -60 -63 -25 -44 -25 -46 -25 -294 0
-242 1 -251 23 -293 31 -59 91 -86 174 -80 105 8 147 62 156 204 l5 84 -62 0
-61 0 0 -59 c0 -87 -12 -111 -54 -111 -25 0 -38 6 -46 19 -6 12 -10 107 -10
240 0 210 1 222 21 242 14 14 27 18 42 14 35 -11 47 -35 47 -92 l0 -53 61 0
62 0 -6 75 c-9 128 -54 177 -165 183 -52 2 -75 -1 -102 -16z"/>
<path d="M2830 1375 l0 -365 220 1 219 0 6 37 c17 100 10 92 80 92 l63 0 9
-62 8 -63 63 -3 c51 -2 62 0 62 13 0 8 -25 170 -55 359 -30 189 -55 346 -55
350 0 3 -40 6 -89 6 -84 0 -89 -1 -94 -22 -3 -13 -29 -173 -58 -355 -29 -183
-54 -331 -56 -329 -2 1 -4 21 -5 44 l-1 42 -94 0 -93 0 0 310 0 310 -65 0 -65
0 0 -365z m563 -77 l7 -48 -45 0 c-53 0 -52 -12 -25 165 11 72 20 135 21 140
1 10 29 -162 42 -257z"/>
<path d="M4246 1713 c-3 -16 -28 -172 -56 -348 -27 -176 -52 -328 -54 -337 -4
-16 4 -18 54 -18 l59 0 6 38 c17 100 9 92 81 92 49 0 64 -3 64 -15 0 -7 5 -37
11 -65 l11 -50 59 0 c51 0 59 3 59 19 0 10 -25 172 -55 360 -30 188 -55 344
-55 346 0 3 -40 5 -89 5 l-89 0 -6 -27z m128 -415 l7 -48 -47 0 -47 0 7 48 c3
26 14 97 23 157 l17 110 17 -110 c9 -60 19 -131 23 -157z"/>
<path d="M4580 1375 l0 -365 60 0 60 0 2 233 3 232 49 -185 c27 -102 55 -206
63 -232 l14 -48 64 0 65 0 0 365 0 365 -60 0 -61 0 2 -175 c1 -97 -1 -178 -3
-180 -3 -3 -21 59 -42 137 -20 79 -42 160 -47 181 l-10 37 -79 0 -80 0 0 -365z"/>
<path d="M5030 1376 l0 -366 120 0 c128 0 156 7 197 52 39 42 45 89 41 333 -3
252 -9 278 -66 320 -23 17 -46 20 -159 23 l-133 4 0 -366z m214 238 c14 -13
16 -49 16 -239 0 -252 -1 -255 -71 -255 l-39 0 0 255 0 255 39 0 c23 0 46 -7
55 -16z"/>
<path d="M5450 1375 l0 -365 160 0 160 0 0 55 0 55 -94 0 -95 0 -3 100 -3 100
78 0 77 0 0 60 0 60 -75 0 -75 0 0 95 0 95 95 0 95 0 0 55 0 55 -160 0 -160 0
0 -365z"/>
<path d="M5830 1375 l0 -365 155 0 155 0 0 55 0 55 -90 0 -90 0 0 310 0 310
-65 0 -65 0 0 -365z"/>
<path d="M6265 1728 c-2 -7 -27 -159 -55 -338 -29 -179 -54 -337 -57 -352 l-5
-28 60 0 60 0 9 63 8 62 65 0 65 0 9 -62 9 -63 63 0 c35 0 64 3 64 6 0 3 -14
90 -30 192 -17 103 -43 264 -58 357 l-27 170 -88 3 c-64 2 -88 -1 -92 -10z
m110 -320 c9 -73 20 -139 22 -145 4 -10 -9 -13 -47 -13 -44 0 -51 2 -46 18 2
9 13 74 23 145 9 70 20 127 23 127 4 0 15 -60 25 -132z"/>
<path d="M6600 1375 l0 -365 65 0 65 0 0 146 0 145 37 -3 c52 -4 63 -30 63
-155 0 -56 3 -108 6 -117 5 -12 21 -16 71 -16 36 0 62 4 59 9 -4 5 -8 65 -9
133 -4 128 -20 189 -54 202 -14 6 -13 10 5 29 33 35 42 72 42 165 0 162 -36
192 -227 192 l-123 0 0 -365z m214 233 c10 -14 16 -44 16 -83 0 -77 -18 -105
-66 -105 l-34 0 0 105 0 105 34 0 c25 0 39 -7 50 -22z"/>
<path d="M7020 1375 l0 -365 60 0 60 0 0 365 0 365 -60 0 -60 0 0 -365z"/>
<path d="M7296 1713 c-3 -16 -15 -86 -26 -158 -69 -437 -81 -509 -86 -527 -5
-16 2 -18 55 -18 l60 0 6 38 c17 100 10 92 80 92 l63 0 6 -47 c12 -85 11 -83
77 -83 48 0 59 3 59 16 0 10 -25 171 -55 360 -30 189 -55 346 -55 349 0 3 -40
5 -89 5 l-89 0 -6 -27z m134 -455 c0 -5 -20 -8 -45 -8 -36 0 -45 3 -45 18 0
13 36 267 41 292 1 5 48 -285 49 -302z"/>
<path d="M1075 1653 c14 -100 69 -323 111 -451 81 -250 201 -441 381 -611 414
-393 1013 -540 1691 -415 l134 24 46 -39 c77 -63 142 -100 227 -127 345 -111
855 82 998 377 49 100 54 137 27 172 -17 21 -30 27 -59 27 -44 0 -63 -18 -81
-75 -40 -128 -171 -245 -353 -316 -113 -43 -195 -59 -312 -59 -133 0 -212 22
-299 83 l-29 20 34 18 c50 26 124 106 154 168 57 113 42 224 -40 300 -58 53
-107 73 -180 73 -152 1 -243 -100 -253 -278 -3 -57 0 -97 12 -138 10 -32 15
-60 12 -63 -20 -20 -318 -54 -481 -55 -484 -1 -862 141 -1161 437 -210 207
-313 414 -393 785 -17 80 -34 155 -36 168 -5 20 -11 22 -81 22 l-76 0 7 -47z
m2504 -998 c40 -20 56 -64 41 -109 -18 -55 -63 -110 -114 -136 -55 -29 -58
-26 -77 58 -15 64 0 144 33 179 25 27 75 30 117 8z"/>
<path d="M9135 1678 c-2 -13 -19 -88 -36 -168 -76 -355 -178 -566 -368 -763
-117 -121 -231 -205 -386 -282 -148 -74 -266 -114 -422 -146 -209 -42 -612
-36 -820 12 l-49 12 19 56 c15 43 18 75 15 141 -10 184 -102 286 -258 283 -69
-1 -119 -23 -175 -74 -84 -77 -97 -186 -37 -305 27 -54 105 -139 157 -171 20
-12 20 -12 0 -28 -131 -106 -377 -116 -612 -26 -184 71 -316 190 -354 318 -15
53 -40 76 -81 75 -80 -2 -93 -78 -33 -198 93 -190 316 -335 606 -394 241 -50
449 -3 620 142 l47 40 79 -16 c200 -40 299 -50 508 -50 226 0 299 8 490 54
291 71 542 206 750 402 249 236 370 484 465 958 15 74 25 138 23 143 -2 4 -35
7 -73 7 -64 0 -70 -2 -75 -22z m-2242 -1028 c37 -29 54 -112 38 -182 -19 -84
-22 -87 -77 -58 -81 42 -138 143 -114 201 24 56 105 77 153 39z"/>
<path d="M5144 743 c-32 -65 -58 -119 -59 -120 -1 -2 -258 -43 -269 -43 -23 0
7 -38 90 -116 l97 -90 -23 -133 c-14 -79 -19 -136 -14 -141 6 -6 56 16 128 53
l119 63 120 -63 c66 -35 124 -60 129 -55 4 4 -2 67 -14 140 l-22 132 98 99
c61 62 94 101 87 106 -7 3 -55 13 -109 21 -53 7 -111 16 -127 19 -28 5 -36 17
-90 125 -33 66 -65 120 -71 120 -7 0 -38 -53 -70 -117z"/>
</g>
</svg>
