<svg xmlns="http://www.w3.org/2000/svg" width="31.5" height="31.5" viewBox="0 0 31.5 31.5">
  <g id="account_circle-24px">
    <path id="Trazado_247" data-name="Trazado 247" d="M0,0H31.5V31.5H0Z" fill="none"/>
    <path id="Trazado_248" data-name="Trazado 248" d="M14.75,2A12.75,12.75,0,1,0,27.5,14.75,12.755,12.755,0,0,0,14.75,2Zm0,3.825A3.825,3.825,0,1,1,10.925,9.65,3.82,3.82,0,0,1,14.75,5.825Zm0,18.105A9.181,9.181,0,0,1,7.1,19.825c.038-2.537,5.1-3.927,7.65-3.927s7.612,1.39,7.65,3.927A9.181,9.181,0,0,1,14.75,23.93Z" transform="translate(1 1)" fill="#dde8f1"/>
  </g>
</svg>
