<svg xmlns="http://www.w3.org/2000/svg" width="31.5" height="31.5" viewBox="0 0 31.5 31.5">
  <g id="exit_to_app-24px" opacity="0.8">
    <path id="Trazado_253" data-name="Trazado 253" d="M0,0H31.5V31.5H0Z" fill="none"/>
    <path id="Trazado_254" data-name="Trazado 254" d="M12.738,19.613a1.245,1.245,0,0,0,1.762,0l4.488-4.488a1.245,1.245,0,0,0,0-1.762L14.5,8.875a1.246,1.246,0,0,0-1.762,1.762L15.087,13H4.25a1.25,1.25,0,0,0,0,2.5H15.087l-2.35,2.35A1.256,1.256,0,0,0,12.738,19.613ZM23,3H5.5A2.5,2.5,0,0,0,3,5.5V9.25a1.25,1.25,0,0,0,2.5,0V6.75A1.254,1.254,0,0,1,6.75,5.5h15A1.254,1.254,0,0,1,23,6.75v15A1.254,1.254,0,0,1,21.75,23h-15A1.254,1.254,0,0,1,5.5,21.75v-2.5a1.25,1.25,0,0,0-2.5,0V23a2.507,2.507,0,0,0,2.5,2.5H23A2.507,2.507,0,0,0,25.5,23V5.5A2.507,2.507,0,0,0,23,3Z" transform="translate(1.5 1.5)" fill="#fff"/>
  </g>
</svg>
